<mxfile host="app.diagrams.net" agent="Mozilla/5.0 (Windows NT 10.0; Win64; x64) AppleWebKit/537.36 (KHTML, like Gecko) Chrome/131.0.0.0 Safari/537.36" version="25.0.3">
  <diagram name="PÃ¡gina-1" id="FIXZRCBTXXRx1czTlxMS">
    <mxGraphModel dx="880" dy="426" grid="1" gridSize="10" guides="1" tooltips="1" connect="1" arrows="1" fold="1" page="1" pageScale="1" pageWidth="827" pageHeight="1169" math="0" shadow="0">
      <root>
        <mxCell id="0" />
        <mxCell id="1" parent="0" />
        <mxCell id="TWgm0Cy_lk8PN_heZSoH-2" value="Cliente&lt;br&gt;(Navegador/ React App)" style="rounded=0;whiteSpace=wrap;html=1;" parent="1" vertex="1">
          <mxGeometry x="400" y="80" width="160" height="60" as="geometry" />
        </mxCell>
        <mxCell id="TWgm0Cy_lk8PN_heZSoH-4" value="Backend (Spring Boot)" style="rounded=0;whiteSpace=wrap;html=1;" parent="1" vertex="1">
          <mxGeometry x="350" y="190" width="260" height="40" as="geometry" />
        </mxCell>
        <mxCell id="TWgm0Cy_lk8PN_heZSoH-15" value="" style="endArrow=none;dashed=1;html=1;rounded=0;" parent="1" target="TWgm0Cy_lk8PN_heZSoH-13" edge="1">
          <mxGeometry width="50" height="50" relative="1" as="geometry">
            <mxPoint x="390" y="250" as="sourcePoint" />
            <mxPoint x="440" y="200" as="targetPoint" />
          </mxGeometry>
        </mxCell>
        <mxCell id="TWgm0Cy_lk8PN_heZSoH-13" value="Controladores (API)" style="rounded=0;whiteSpace=wrap;html=1;" parent="1" vertex="1">
          <mxGeometry x="350" y="230" width="80" height="50" as="geometry" />
        </mxCell>
        <mxCell id="TWgm0Cy_lk8PN_heZSoH-19" value="Servicios&lt;br&gt;(Log. Neg.)&lt;div&gt;&lt;br&gt;&lt;/div&gt;" style="rounded=0;whiteSpace=wrap;html=1;" parent="1" vertex="1">
          <mxGeometry x="430" y="230" width="90" height="50" as="geometry" />
        </mxCell>
        <mxCell id="TWgm0Cy_lk8PN_heZSoH-20" value="Repos.&lt;br&gt;(JPA)" style="rounded=0;whiteSpace=wrap;html=1;" parent="1" vertex="1">
          <mxGeometry x="520" y="230" width="90" height="50" as="geometry" />
        </mxCell>
        <mxCell id="TWgm0Cy_lk8PN_heZSoH-21" value="Base De Datos&lt;br&gt;(MySQL)" style="rounded=0;whiteSpace=wrap;html=1;" parent="1" vertex="1">
          <mxGeometry x="350" y="310" width="260" height="60" as="geometry" />
        </mxCell>
        <mxCell id="TWgm0Cy_lk8PN_heZSoH-22" value="" style="endArrow=none;dashed=1;html=1;rounded=0;entryX=0.5;entryY=1;entryDx=0;entryDy=0;exitX=0.477;exitY=0.05;exitDx=0;exitDy=0;exitPerimeter=0;" parent="1" source="TWgm0Cy_lk8PN_heZSoH-21" target="TWgm0Cy_lk8PN_heZSoH-19" edge="1">
          <mxGeometry width="50" height="50" relative="1" as="geometry">
            <mxPoint x="440" y="350" as="sourcePoint" />
            <mxPoint x="490" y="300" as="targetPoint" />
          </mxGeometry>
        </mxCell>
        <mxCell id="TWgm0Cy_lk8PN_heZSoH-23" value="" style="endArrow=none;dashed=1;html=1;rounded=0;entryX=0.5;entryY=1;entryDx=0;entryDy=0;" parent="1" target="TWgm0Cy_lk8PN_heZSoH-2" edge="1">
          <mxGeometry width="50" height="50" relative="1" as="geometry">
            <mxPoint x="480" y="180" as="sourcePoint" />
            <mxPoint x="500" y="140" as="targetPoint" />
          </mxGeometry>
        </mxCell>
      </root>
    </mxGraphModel>
  </diagram>
</mxfile>
